<?xml version="1.0" encoding="UTF-8" standalone="no"?>
<!-- Created with Inkscape (http://www.inkscape.org/) -->

<svg
   width="100mm"
   height="100mm"
   viewBox="0 0 100 100"
   version="1.1"
   id="svg5"
   inkscape:version="1.1.1 (3bf5ae0d25, 2021-09-20, custom)"
   sodipodi:docname="logo.svg"
   inkscape:export-filename="/home/kiran/Projects/Clojure/Doplarr/logos/logo.png"
   inkscape:export-xdpi="300"
   inkscape:export-ydpi="300"
   xmlns:inkscape="http://www.inkscape.org/namespaces/inkscape"
   xmlns:sodipodi="http://sodipodi.sourceforge.net/DTD/sodipodi-0.dtd"
   xmlns="http://www.w3.org/2000/svg"
   xmlns:svg="http://www.w3.org/2000/svg">
  <sodipodi:namedview
     id="namedview7"
     pagecolor="#ffffff"
     bordercolor="#111111"
     borderopacity="1"
     inkscape:pageshadow="0"
     inkscape:pageopacity="0"
     inkscape:pagecheckerboard="true"
     inkscape:document-units="mm"
     showgrid="false"
     height="100mm"
     scale-x="1"
     inkscape:zoom="0.84730922"
     inkscape:cx="-86.745191"
     inkscape:cy="462.05091"
     inkscape:window-width="1758"
     inkscape:window-height="1350"
     inkscape:window-x="3338"
     inkscape:window-y="66"
     inkscape:window-maximized="1"
     inkscape:current-layer="layer1" />
  <defs
     id="defs2">
    <inkscape:path-effect
       effect="mirror_symmetry"
       start_point="28.682452,9.1988852"
       end_point="28.682452,90.801115"
       center_point="28.682452,50"
       id="path-effect20182"
       is_visible="true"
       lpeversion="1.1"
       mode="vertical"
       discard_orig_path="false"
       fuse_paths="false"
       oposite_fuse="false"
       split_items="false"
       split_open="false" />
  </defs>
  <g
     inkscape:label="Layer 1"
     inkscape:groupmode="layer"
     id="layer1">
    <circle
       style="fill:#7289da;fill-opacity:1;stroke:none;stroke-width:0.262264;stroke-linecap:square;stroke-dasharray:1.5736, 0.262264"
       id="path866"
       cx="50"
       cy="50"
       r="50" />
    <g
       aria-label="D"
       id="text1956"
       style="font-size:83.3059px;line-height:1.25;font-family:Impact;-inkscape-font-specification:'Impact, Normal';fill:#ffffff;stroke-width:2.08265"
       transform="matrix(0.92504678,0,0,0.92504678,71.71317,13.992208)">
      <path
         d="m -43.302405,5.9975786 h 12.813163 c 8.270931,0 13.857199,0.3796489 16.758804,1.1389467 2.928723,0.7592987 5.1523828,2.0067177 6.6709798,3.7422577 1.518597,1.735539 2.46772,3.674462 2.847369,5.816769 0.379649,2.115189 0.569474,6.291331 0.569474,12.528426 v 23.063695 c 0,5.911681 -0.284737,9.870881 -0.854211,11.877599 -0.542356,1.9796 -1.505038,3.538874 -2.888046,4.677821 -1.383008,1.11183 -3.0914288,1.898246 -5.1252648,2.359249 -2.033835,0.433885 -5.098147,0.650828 -9.192936,0.650828 h -21.599332 z"
         id="path23416"
         sodipodi:nodetypes="cscscsscccscc" />
    </g>
    <path
       id="path21610"
       style="fill:#fffffe;stroke:#000000;stroke-width:0.264583"
       d="M 50.0178,51.760883 A 0.01779476,0.01779476 0 0 1 50,51.778673 0.01779476,0.01779476 0 0 1 49.9822,51.760883 0.01779476,0.01779476 0 0 1 50,51.743093 a 0.01779476,0.01779476 0 0 1 0.0178,0.01779 z" />
    <path
       id="path21612"
       style="fill:#fffffe;stroke:#000000;stroke-width:0.264583"
       d="M 50.0178,51.760883 A 0.01779476,0.01779476 0 0 1 50,51.778673 0.01779476,0.01779476 0 0 1 49.9822,51.760883 0.01779476,0.01779476 0 0 1 50,51.743093 a 0.01779476,0.01779476 0 0 1 0.0178,0.01779 z" />
    <text
       xml:space="preserve"
       style="font-style:normal;font-variant:normal;font-weight:normal;font-stretch:normal;font-size:47.894px;line-height:1.25;font-family:Impact;-inkscape-font-specification:Impact;fill:#7289da;fill-opacity:1;stroke-width:1.19735"
       x="38.388977"
       y="68.802139"
       id="text24934"><tspan
         sodipodi:role="line"
         id="tspan24932"
         style="font-style:normal;font-variant:normal;font-weight:normal;font-stretch:normal;font-family:Impact;-inkscape-font-specification:Impact;fill:#7289da;fill-opacity:1;stroke-width:1.19735"
         x="38.388977"
         y="68.802139">λ</tspan></text>
    <g
       aria-label="("
       id="text16135"
       style="font-size:89.8502px;line-height:1.25;font-family:'Times New Roman';-inkscape-font-specification:'Times New Roman, Normal';fill:#ffffff;stroke-width:2.24626"
       inkscape:path-effect="#path-effect20182"
       transform="translate(4.5800001,-0.28635574)">
      <path
         d="m 28.682452,89.464201 v 1.62327 C 24.265987,88.864614 20.580725,86.261532 17.626666,83.278225 13.414938,79.037249 10.168398,74.035822 7.8870448,68.273944 5.6056921,62.512066 4.4650158,56.530827 4.4650158,50.330228 c 0,-9.066914 2.2374804,-17.329505 6.7124412,-24.787774 4.474961,-7.487516 10.30996,-12.83992 17.504995,-16.0572134 v 1.8426314 c -3.597518,1.988872 -6.551577,4.708946 -8.862178,8.160223 -2.310601,3.451277 -4.036239,7.82387 -5.176916,13.117778 -1.140676,5.293908 -1.711014,10.821801 -1.711014,16.583679 0,6.259095 0.482594,11.947853 1.447781,17.066273 0.760451,4.036239 1.681767,7.268155 2.763947,9.695748 1.08218,2.456841 2.529961,4.811314 4.343344,7.063419 1.842631,2.252105 4.240977,4.401841 7.195036,6.449209 z m 33.475096,0 v 1.62327 c 4.416465,-2.222857 8.101727,-4.825939 11.055786,-7.809246 4.211728,-4.240976 7.458268,-9.242403 9.739621,-15.004281 2.281353,-5.761878 3.422029,-11.743117 3.422029,-17.943716 0,-9.066914 -2.23748,-17.329505 -6.712441,-24.787774 C 75.187582,18.054938 69.352583,12.702534 62.157548,9.4852406 v 1.8426314 c 3.597518,1.988872 6.551577,4.708946 8.862178,8.160223 2.310601,3.451277 4.036239,7.82387 5.176916,13.117778 1.140676,5.293908 1.711014,10.821801 1.711014,16.583679 0,6.259095 -0.482594,11.947853 -1.447781,17.066273 -0.760451,4.036239 -1.681767,7.268155 -2.763947,9.695748 -1.08218,2.456841 -2.529961,4.811314 -4.343344,7.063419 -1.842631,2.252105 -4.240977,4.401841 -7.195036,6.449209 z"
         id="path20161"
         inkscape:original-d="m 28.682452,89.464201 v 1.62327 Q 22.057755,87.753186 17.626666,83.278225 11.309074,76.916761 7.8870448,68.273944 4.4650158,59.631127 4.4650158,50.330228 q 0,-13.600371 6.7124412,-24.787774 Q 17.889899,14.31118 28.682452,9.4852406 v 1.8426314 q -5.396277,2.983308 -8.862178,8.160223 -3.465901,5.176916 -5.176916,13.117778 -1.711014,7.940862 -1.711014,16.583679 0,9.388643 1.447781,17.066273 1.140677,6.054359 2.763947,9.695748 1.62327,3.685262 4.343344,7.063419 2.763947,3.378157 7.195036,6.449209 z" />
    </g>
    <text
       xml:space="preserve"
       style="font-style:normal;font-variant:normal;font-weight:normal;font-stretch:normal;font-size:44.9694px;line-height:1.25;font-family:'Uni Sans';-inkscape-font-specification:'Uni Sans, Normal';font-variant-ligatures:normal;font-variant-caps:normal;font-variant-numeric:normal;font-variant-east-asian:normal;fill:#7289da;fill-opacity:1;stroke-width:1.12424"
       x="-50.371716"
       y="143.76521"
       id="text1822"><tspan
         sodipodi:role="line"
         id="tspan1820"
         style="font-style:normal;font-variant:normal;font-weight:normal;font-stretch:normal;font-size:44.9694px;font-family:'Uni Sans';-inkscape-font-specification:'Uni Sans, Normal';font-variant-ligatures:normal;font-variant-caps:normal;font-variant-numeric:normal;font-variant-east-asian:normal;fill:#7289da;fill-opacity:1;stroke-width:1.12424"
         x="-50.371716"
         y="143.76521">DOPLARR</tspan></text>
  </g>
</svg>
