<?xml version="1.0" encoding="UTF-8" standalone="no"?>
<!-- Created with Inkscape (http://www.inkscape.org/) -->

<svg
   width="100mm"
   height="100mm"
   viewBox="0 0 100 100"
   version="1.1"
   id="svg5"
   inkscape:version="1.1.1 (3bf5ae0d25, 2021-09-20, custom)"
   sodipodi:docname="logo.svg"
   inkscape:export-filename="/home/kiran/Projects/Clojure/Doplarr/logos/logo.png"
   inkscape:export-xdpi="300"
   inkscape:export-ydpi="300"
   xmlns:inkscape="http://www.inkscape.org/namespaces/inkscape"
   xmlns:sodipodi="http://sodipodi.sourceforge.net/DTD/sodipodi-0.dtd"
   xmlns="http://www.w3.org/2000/svg"
   xmlns:svg="http://www.w3.org/2000/svg">
  <sodipodi:namedview
     id="namedview7"
     pagecolor="#ffffff"
     bordercolor="#111111"
     borderopacity="1"
     inkscape:pageshadow="0"
     inkscape:pageopacity="0"
     inkscape:pagecheckerboard="true"
     inkscape:document-units="mm"
     showgrid="false"
     height="100mm"
     scale-x="1"
     inkscape:zoom="0.97213405"
     inkscape:cx="261.79517"
     inkscape:cy="523.07601"
     inkscape:window-width="1758"
     inkscape:window-height="1350"
     inkscape:window-x="3338"
     inkscape:window-y="66"
     inkscape:window-maximized="1"
     inkscape:current-layer="text1822" />
  <defs
     id="defs2">
    <inkscape:path-effect
       effect="mirror_symmetry"
       start_point="28.682452,9.1988852"
       end_point="28.682452,90.801115"
       center_point="28.682452,50"
       id="path-effect20182"
       is_visible="true"
       lpeversion="1.1"
       mode="vertical"
       discard_orig_path="false"
       fuse_paths="false"
       oposite_fuse="false"
       split_items="false"
       split_open="false" />
  </defs>
  <g
     inkscape:label="Layer 1"
     inkscape:groupmode="layer"
     id="layer1">
    <circle
       style="fill:#7289da;fill-opacity:1;stroke:none;stroke-width:0.262264;stroke-linecap:square;stroke-dasharray:1.5736, 0.262264"
       id="path866"
       cx="50"
       cy="50"
       r="50" />
    <g
       aria-label="D"
       id="text1956"
       style="font-size:83.3059px;line-height:1.25;font-family:Impact;-inkscape-font-specification:'Impact, Normal';fill:#ffffff;stroke-width:2.08265"
       transform="matrix(0.92504678,0,0,0.92504678,71.71317,13.992208)">
      <path
         d="m -43.302405,5.9975786 h 12.813163 c 8.270931,0 13.857199,0.3796489 16.758804,1.1389467 2.928723,0.7592987 5.1523828,2.0067177 6.6709798,3.7422577 1.518597,1.735539 2.46772,3.674462 2.847369,5.816769 0.379649,2.115189 0.569474,6.291331 0.569474,12.528426 v 23.063695 c 0,5.911681 -0.284737,9.870881 -0.854211,11.877599 -0.542356,1.9796 -1.505038,3.538874 -2.888046,4.677821 -1.383008,1.11183 -3.0914288,1.898246 -5.1252648,2.359249 -2.033835,0.433885 -5.098147,0.650828 -9.192936,0.650828 h -21.599332 z"
         id="path23416"
         sodipodi:nodetypes="cscscsscccscc" />
    </g>
    <path
       id="path21610"
       style="fill:#fffffe;stroke:#000000;stroke-width:0.264583"
       d="M 50.0178,51.760883 A 0.01779476,0.01779476 0 0 1 50,51.778673 0.01779476,0.01779476 0 0 1 49.9822,51.760883 0.01779476,0.01779476 0 0 1 50,51.743093 a 0.01779476,0.01779476 0 0 1 0.0178,0.01779 z" />
    <path
       id="path21612"
       style="fill:#fffffe;stroke:#000000;stroke-width:0.264583"
       d="M 50.0178,51.760883 A 0.01779476,0.01779476 0 0 1 50,51.778673 0.01779476,0.01779476 0 0 1 49.9822,51.760883 0.01779476,0.01779476 0 0 1 50,51.743093 a 0.01779476,0.01779476 0 0 1 0.0178,0.01779 z" />
    <g
       aria-label="λ"
       id="text24934"
       style="font-size:47.894px;line-height:1.25;font-family:Impact;-inkscape-font-specification:Impact;fill:#7289da;stroke-width:1.19735">
      <path
         d="m 38.342206,68.802139 5.168249,-28.50722 q 0.3274,-1.824088 0.3274,-3.016761 0,-1.473302 -1.941017,-1.473302 h -1.26283 v -4.88762 h 5.752893 q 4.770692,0 6.852023,1.052359 2.081331,1.052358 2.806289,3.507861 0.748344,2.432117 1.356373,8.325324 l 1.870859,17.773165 q 0.140315,1.520073 0.420944,1.870859 0.304014,0.327401 0.724958,0.327401 0.350786,0 1.239444,-0.04677 v 5.027935 q -2.736132,0.3274 -5.402107,0.3274 -4.560219,0 -4.934391,-5.355335 L 50.035077,45.322854 46.924773,68.802139 Z"
         id="path2772" />
    </g>
    <g
       aria-label="("
       id="text16135"
       style="font-size:89.8502px;line-height:1.25;font-family:'Times New Roman';-inkscape-font-specification:'Times New Roman, Normal';fill:#ffffff;stroke-width:2.24626"
       inkscape:path-effect="#path-effect20182"
       transform="translate(4.5800001,-0.28635574)">
      <path
         d="m 28.682452,89.464201 v 1.62327 C 24.265987,88.864614 20.580725,86.261532 17.626666,83.278225 13.414938,79.037249 10.168398,74.035822 7.8870448,68.273944 5.6056921,62.512066 4.4650158,56.530827 4.4650158,50.330228 c 0,-9.066914 2.2374804,-17.329505 6.7124412,-24.787774 4.474961,-7.487516 10.30996,-12.83992 17.504995,-16.0572134 v 1.8426314 c -3.597518,1.988872 -6.551577,4.708946 -8.862178,8.160223 -2.310601,3.451277 -4.036239,7.82387 -5.176916,13.117778 -1.140676,5.293908 -1.711014,10.821801 -1.711014,16.583679 0,6.259095 0.482594,11.947853 1.447781,17.066273 0.760451,4.036239 1.681767,7.268155 2.763947,9.695748 1.08218,2.456841 2.529961,4.811314 4.343344,7.063419 1.842631,2.252105 4.240977,4.401841 7.195036,6.449209 z m 33.475096,0 v 1.62327 c 4.416465,-2.222857 8.101727,-4.825939 11.055786,-7.809246 4.211728,-4.240976 7.458268,-9.242403 9.739621,-15.004281 2.281353,-5.761878 3.422029,-11.743117 3.422029,-17.943716 0,-9.066914 -2.23748,-17.329505 -6.712441,-24.787774 C 75.187582,18.054938 69.352583,12.702534 62.157548,9.4852406 v 1.8426314 c 3.597518,1.988872 6.551577,4.708946 8.862178,8.160223 2.310601,3.451277 4.036239,7.82387 5.176916,13.117778 1.140676,5.293908 1.711014,10.821801 1.711014,16.583679 0,6.259095 -0.482594,11.947853 -1.447781,17.066273 -0.760451,4.036239 -1.681767,7.268155 -2.763947,9.695748 -1.08218,2.456841 -2.529961,4.811314 -4.343344,7.063419 -1.842631,2.252105 -4.240977,4.401841 -7.195036,6.449209 z"
         id="path20161"
         inkscape:original-d="m 28.682452,89.464201 v 1.62327 Q 22.057755,87.753186 17.626666,83.278225 11.309074,76.916761 7.8870448,68.273944 4.4650158,59.631127 4.4650158,50.330228 q 0,-13.600371 6.7124412,-24.787774 Q 17.889899,14.31118 28.682452,9.4852406 v 1.8426314 q -5.396277,2.983308 -8.862178,8.160223 -3.465901,5.176916 -5.176916,13.117778 -1.711014,7.940862 -1.711014,16.583679 0,9.388643 1.447781,17.066273 1.140677,6.054359 2.763947,9.695748 1.62327,3.685262 4.343344,7.063419 2.763947,3.378157 7.195036,6.449209 z" />
    </g>
    <g
       aria-label="DOPLARR"
       id="text1822"
       style="font-size:44.9694px;line-height:1.25;font-family:'Uni Sans';-inkscape-font-specification:'Uni Sans, Normal';fill:#7289da;stroke-width:1.12424">
      <path
         d="m -47.853429,111.92688 v 31.83833 h 11.91689 c 6.385655,0.045 12.366585,-3.14785 12.366585,-10.47787 v -10.70271 c 0,-7.41995 -5.98093,-10.65775 -12.366585,-10.65775 z m 8.094491,24.28347 v -16.77358 h 4.092216 c 2.698164,0 4.002276,1.30411 4.002276,3.3727 v 9.93824 c 0,2.06859 -1.259143,3.46264 -4.002276,3.46264 z"
         id="path1995" />
      <path
         d="m -20.017386,133.28734 c 0,7.28505 6.610502,10.92757 13.2210031,10.92757 6.61050163,0 13.1760338,-3.64252 13.1760338,-10.92757 v -10.88259 c 0,-7.28504 -6.61050157,-10.92757 -13.2210031,-10.92757 -6.6105018,0 -13.1760338,3.59756 -13.1760338,10.92757 z m 8.049522,-10.88259 c 0,-2.33841 2.5182866,-3.59755 5.036573,-3.59755 2.6082251,0 5.2614196,1.12423 5.2614196,3.59755 v 10.88259 c 0,2.29344 -2.5632557,3.46265 -5.1265115,3.46265 -2.5632557,0 -5.1714811,-1.12424 -5.1714811,-3.46265 z"
         id="path1997" />
      <path
         d="m 10.651785,143.76521 h 8.049523 v -9.30866 h 4.721787 c 7.689767,0 11.602104,-5.62118 11.602104,-11.28732 0,-5.62118 -3.867368,-11.24235 -11.647074,-11.24235 h -12.72634 z m 8.049523,-16.4588 v -7.86964 h 4.676817 c 4.856695,-0.045 4.856695,7.91461 0,7.86964 z"
         id="path1999" />
      <path
         d="m 38.442874,143.76521 h 21.045678 v -7.95958 H 46.537365 v -23.87875 h -8.094491 z"
         id="path2001" />
      <path
         d="M 78.330711,111.92688 H 71.0007 l -11.107442,31.83833 h 8.634125 l 1.978653,-6.38565 h 8.499216 l 2.068593,6.38565 h 8.634124 z m -6.025899,18.30254 2.338409,-9.30866 h 0.224847 l 2.2035,9.30866 z"
         id="path2003" />
      <path
         d="m 108.77502,143.76521 h 10.02818 l -8.6791,-10.92756 c 3.86737,-1.21417 6.25075,-4.54191 6.25075,-10.4329 -0.17988,-7.46492 -5.26142,-10.47787 -11.82695,-10.47787 H 91.821559 v 31.83833 H 99.96102 V 133.6471 h 1.43902 z m -8.814,-17.0434 v -7.28504 h 4.72179 c 5.08154,0 5.08154,7.28504 0,7.28504 z"
         id="path2005" />
      <path
         d="m 137.82525,143.76521 h 10.02818 l -8.67909,-10.92756 c 3.86736,-1.21417 6.25074,-4.54191 6.25074,-10.4329 -0.17988,-7.46492 -5.26142,-10.47787 -11.82695,-10.47787 h -12.72634 v 31.83833 h 8.13946 V 133.6471 h 1.43902 z m -8.814,-17.0434 v -7.28504 h 4.72179 c 5.08154,0 5.08154,7.28504 0,7.28504 z"
         id="path2007" />
    </g>
  </g>
</svg>
